<?xml version="1.0" encoding="utf-8"?>
<svg version="1.1" xmlns="http://www.w3.org/2000/svg" viewBox="0 0 1920 1080" xml:space="preserve">
<g id="text" fill="#fff">
    <path d="M135.04,668.01c-3.67-0.67-7.34-0.17-11,1.5c-3.67,1.66-7.34,2.83-11,3.5c-3.67,0.66-7.5-0.67-11.5-4
        c-1-1.67-2-3.25-3-4.75s-1.67-2.91-2-4.25c-3.34-26.66-5.67-52.83-7-78.5c-1.34-25.66-2.84-48.33-4.5-68c-2-25-4-49-6-72
        s-6.5-46.83-13.5-71.5c1.33-9,3.25-17.08,5.75-24.25c2.5-7.16,8.91-13.25,19.25-18.25c20.66-3.66,41.25-4.91,61.75-3.75
        c20.5,1.17,40.91,4.09,61.25,8.75c23.66,5.34,40.66,14.67,51,28c10.33,13.34,11.16,31,2.5,53c-2.34,6.34-7,13.34-14,21
        c-7,7.67-11.84,14.5-14.5,20.5c0.33,2.67,1.91,4.67,4.75,6c2.83,1.34,6.08,2.25,9.75,2.75c3.66,0.5,6.5,1.25,8.5,2.25
        c9.33,3,18.25,6.59,26.75,10.75c8.5,4.17,16.41,9.42,23.75,15.75c9.66,7.67,16.41,14.34,20.25,20c3.83,5.67,5.41,14.34,4.75,26
        c-1,16.34-6.17,30.84-15.5,43.5c-6.34,9.34-13.67,17.75-22,25.25c-8.34,7.5-17.67,13.75-28,18.75c-7,3.67-14,7.09-21,10.25
        c-7,3.17-14.17,6.09-21.5,8.75c-12,4.67-24.17,9.09-36.5,13.25c-12.34,4.17-24.84,8.58-37.5,13.25L135.04,668.01z M131.54,639.51
        c2,0,4.83,0.09,8.5,0.25c3.66,0.17,6.66,0.09,9-0.25c16.66-4.66,33.08-10,49.25-16c16.16-6,31.91-12.66,47.25-20
        c4.66-2,9.08-4.66,13.25-8c4.16-3.33,8.41-6.66,12.75-10c8-6.33,14.66-14.08,20-23.25c5.33-9.16,7.5-18.66,6.5-28.5
        c-1-9.83-7-18.91-18-27.25c-2.67-2.33-7.42-5.66-14.25-10c-6.84-4.33-14.92-7.83-24.25-10.5c-9.34-2.66-19.34-2.5-30,0.5l-53,19.5
        c-6.34-2-10.25-3.83-11.75-5.5c-1.5-1.66-2.09-6.66-1.75-15c2-2,4-4.33,6-7c2-2.66,4.5-4.83,7.5-6.5
        c3.33-2.66,6.91-5.08,10.75-7.25c3.83-2.16,7.58-4.08,11.25-5.75c10-4.33,19.16-10.16,27.5-17.5c8.33-7.33,15.16-15.5,20.5-24.5
        c5-8,7.91-15,8.75-21c0.83-6-1.59-13.33-7.25-22c-1.67-1.66-3.5-3.25-5.5-4.75s-4.17-2.75-6.5-3.75c-7.34-3-15.17-4.83-23.5-5.5
        c-12-1-24.59-1.66-37.75-2c-13.17-0.33-25.75,0.34-37.75,2c-2.34,0.34-4.75,1.17-7.25,2.5c-2.5,1.34-5.09,2.5-7.75,3.5
        c-1.67,9.34-1.84,18.5-0.5,27.5c1.33,9,2.66,16.5,4,22.5c2.66,11.34,4.5,25.09,5.5,41.25c1,16.17,2,31.75,3,46.75
        c1.33,15.34,2.83,33.67,4.5,55c1.66,21.34,3.33,43.17,5,65.5c0,1.34,0.75,3.59,2.25,6.75
        C129.29,634.43,130.54,637.18,131.54,639.51z"/>
    <path d="M729.53,665.51c-8.34,0-14.75-2.25-19.25-6.75s-7.25-10.41-8.25-17.75c-0.34-4.66-0.59-9.16-0.75-13.5
        c-0.17-4.33-0.25-8.66-0.25-13v-19c0-4.33,0.08-7.83,0.25-10.5c0.16-2.66,0.41-5.91,0.75-9.75c0.33-3.83,0.5-9.58,0.5-17.25
        c0-7.66-0.17-18.66-0.5-33c0-5,0-10,0-15s0.16-9.83,0.5-14.5c0-3.33-0.17-6.83-0.5-10.5c-0.34-3.66,0.25-6.75,1.75-9.25
        s5.08-3.75,10.75-3.75c7,0,12.58,2.84,16.75,8.5c4.16,5.67,6.25,13.17,6.25,22.5c0,1.34,0,4.92,0,10.75
        c0,5.84,0.08,11.67,0.25,17.5c0.16,5.84,0.75,9.42,1.75,10.75c-0.67-1.66-0.42-4.83,0.75-9.5c1.16-4.66,2.58-9.16,4.25-13.5
        c1.66-4.33,2.66-6.83,3-7.5c11-23.33,25.58-41.91,43.75-55.75c18.16-13.83,39.08-24.25,62.75-31.25c8-2.33,13.83-2,17.5,1
        c3.66,3,5.5,7.84,5.5,14.5c0,5.34-4,9.67-12,13c-11.34,4.67-22.34,10-33,16c-10.67,6-20.84,12.67-30.5,20
        c-5.67,4.67-10.59,10.67-14.75,18c-4.17,7.34-7.75,14.5-10.75,21.5c-7,17.34-13.34,34.84-19,52.5c-5.67,17.67-9.34,36-11,55
        c0,7-1.59,13.75-4.75,20.25C738.11,662.76,734.2,665.84,729.53,665.51z"/>
    <path d="M960.53,666.01c-4.34,0-8.67-0.08-13-0.25c-4.34-0.16-8.67-0.41-13-0.75c-8.34-0.66-15-3.66-20-9
        c-5-5.33-7.5-11.33-7.5-18c0-4.66,1.5-9.5,4.5-14.5s6.66-7.5,11-7.5c4,0,7.16,2.5,9.5,7.5c2.66,5,5.58,8.42,8.75,10.25
        c3.16,1.84,6.91,2.75,11.25,2.75c7.33,0,16.16-0.91,26.5-2.75c10.33-1.83,20.33-4.33,30-7.5c9.66-3.16,17.16-6.58,22.5-10.25
        c3.33-2,7.91-4.41,13.75-7.25c5.83-2.83,8.75-6.41,8.75-10.75c-0.34-2-2.75-4.41-7.25-7.25c-4.5-2.83-9.5-5.66-15-8.5
        c-5.5-2.83-10.09-5.25-13.75-7.25c-10.34-5.66-20.67-11.25-31-16.75c-10.34-5.5-20.67-11.08-31-16.75
        c-11.34-6.66-20-14.91-26-24.75c-6-9.83-9-19.91-9-30.25c0-9,2.75-17.41,8.25-25.25c5.5-7.83,14.08-14.41,25.75-19.75
        c12-5.33,24.58-9.41,37.75-12.25c13.16-2.83,26.25-5.41,39.25-7.75c20.66-2.33,39.83,3.67,57.5,18c7.66,6,11.5,12.84,11.5,20.5
        c0,8.34-3.5,15.09-10.5,20.25c-7,5.17-13.84,7.59-20.5,7.25c-9.34-0.33-14-3.83-14-10.5c0-1.66,0.83-4.83,2.5-9.5
        c1.66-4.66,2.66-7.83,3-9.5c-7-3.66-14.17-5.5-21.5-5.5c-7.34,0-14.59,0.67-21.75,2c-7.17,1.34-14.09,3.17-20.75,5.5
        c-8.34,2.67-15.84,5.84-22.5,9.5c-6.67,3.67-12.67,8.67-18,15c-4,5.67-5.25,11.09-3.75,16.25c1.5,5.17,4.58,9.42,9.25,12.75
        c8.33,6,17,11.42,26,16.25c9,4.84,18,9.75,27,14.75c7.33,4,14.66,7.84,22,11.5c7.33,3.67,14.66,7.5,22,11.5
        c7,3.67,12.5,9.67,16.5,18c4,8.34,6,15.84,6,22.5c0,7.67-2.84,14.17-8.5,19.5c-4.34,4.34-9,8.5-14,12.5s-10.34,7.34-16,10
        c-13.34,5.67-26.92,9.75-40.75,12.25C988.45,664.76,974.53,666.01,960.53,666.01z"/>
    <path d="M1569.03,667.51c-6,0.66-11.17-0.5-15.5-3.5c-4.34-3-7.17-7.66-8.5-14c-2.34-11.66-4.59-23.5-6.75-35.5
        c-2.17-12-4.25-24-6.25-36c-1.34-7-2.42-14-3.25-21c-0.84-7-1.92-14-3.25-21c-0.67-4-1.67-8.08-3-12.25
        c-1.34-4.16-2.84-8.41-4.5-12.75c-10.34,4-18.59,9.34-24.75,16c-6.17,6.67-11.59,13.84-16.25,21.5c-5.67,9.34-11,18.84-16,28.5
        c-5,9.67-10.34,19.34-16,29c-5.34,8.34-10.75,16.5-16.25,24.5s-11.09,16.17-16.75,24.5c-2.67,4.34-6,6.84-10,7.5
        c-4,0.67-8.34,0.84-13,0.5c-5-0.66-8.5-2.66-10.5-6c-2-3.33-3.34-6.83-4-10.5c-1-5.66-1.67-11.5-2-17.5c-0.34-6-0.67-11.83-1-17.5
        l-4-73.5c-8.34,11.34-16,21.75-23,31.25s-13.67,19.09-20,28.75c-9,13.34-19.42,25-31.25,35c-11.84,10-25.09,18.34-39.75,25
        c-21,9-40.17,10.33-57.5,4c-17.34-6.33-32-19-44-38c-22-35.33-22.5-71.16-1.5-107.5c4-7,8.16-14.08,12.5-21.25
        c4.33-7.16,9.16-13.58,14.5-19.25c4.66-5,10-9.41,16-13.25c6-3.83,12.16-7.41,18.5-10.75c4.66-2.33,10.08-3.33,16.25-3
        c6.16,0.34,12,1.59,17.5,3.75c5.5,2.17,9.41,5.09,11.75,8.75c4.66,7.34,8,14.92,10,22.75c2,7.84,1.16,15.92-2.5,24.25
        c-0.67,2-2.34,3.92-5,5.75c-2.67,1.84-5,2.75-7,2.75s-4.09-1-6.25-3c-2.17-2-3.75-4-4.75-6c-1.67-4-3.17-8.33-4.5-13
        c-1.34-4.66-2.84-10.16-4.5-16.5c-6,3.34-11.34,6.25-16,8.75c-4.67,2.5-8.84,5.59-12.5,9.25c-11.67,12-20.67,24.84-27,38.5
        c-6.34,13.67-8.34,27.84-6,42.5c2.33,14.67,10.33,30,24,46c6.33,7.34,11.83,11.5,16.5,12.5c4.66,1,11.5-0.33,20.5-4
        c19.33-7.66,36.33-18.25,51-31.75c14.66-13.5,28-28.25,40-44.25c7.33-9.66,14-19.58,20-29.75c6-10.16,11.16-20.58,15.5-31.25
        c3.33-8,5.25-16.66,5.75-26c0.5-9.33,0.75-18.5,0.75-27.5c0.33-11.66,1.91-24.75,4.75-39.25c2.83-14.5,6.75-28.66,11.75-42.5
        c5-13.83,10.66-25.58,17-35.25c1.66-2.66,3.58-5.08,5.75-7.25c2.16-2.16,4.08-4.41,5.75-6.75c12,3.67,19.58,7.42,22.75,11.25
        c3.16,3.84,3.75,11.09,1.75,21.75c-1.67,7.67-3.84,17.25-6.5,28.75c-2.67,11.5-5.5,22.92-8.5,34.25c-3,11.34-6,20.84-9,28.5
        c-4.34,11-7.34,21.92-9,32.75c-1.67,10.84-1.84,22.09-0.5,33.75c1.66,13.34,2.58,26.67,2.75,40c0.16,13.34,0.41,26.84,0.75,40.5
        c0.33,2.34,0.66,5.09,1,8.25c0.33,3.17,0.66,7.25,1,12.25c3-3.66,5.58-6.66,7.75-9c2.16-2.33,3.91-4.66,5.25-7
        c7.66-12,15.16-24,22.5-36c7.33-12,15.16-23.66,23.5-35c5.33-7.33,11.41-14,18.25-20c6.83-6,13.91-11.5,21.25-16.5
        c8.33-5.66,16.08-7.33,23.25-5c7.16,2.34,12.91,8.17,17.25,17.5c2.66,5.34,5.08,11,7.25,17c2.16,6,3.91,12,5.25,18
        c3.66,18.34,7.08,36.84,10.25,55.5c3.16,18.67,6.41,37.34,9.75,56c0.33,1.34,0.66,2.5,1,3.5c0.33,1,0.66,2.17,1,3.5
        C1581.86,659.18,1578.03,666.51,1569.03,667.51z"/>
    <path d="M1841.53,679.51c-31.34,0-56.67-9-76-27c-12.34-11.66-22.84-24.5-31.5-38.5c-8.67-14-15.5-29.16-20.5-45.5
        c-3.67-12.33-6.59-24.5-8.75-36.5c-2.17-12-3.59-24.16-4.25-36.5l-1.5-35.5c-4.34-2.33-8.75-3.83-13.25-4.5
        c-4.5-0.66-8.92-1-13.25-1c-8.34,0-16.34,0.84-24,2.5c-7.67,1.67-15.34,2.5-23,2.5c-7,0-12.17-1.5-15.5-4.5
        c-3.34-3-4.66-6.33-4-10c0.66-3.66,3.5-6.5,8.5-8.5c4.66-2,9.58-3.66,14.75-5c5.16-1.33,10.41-2.66,15.75-4
        c8.66-2.33,17.83-3.66,27.5-4c9.66-0.33,17.66-2.16,24-5.5c4.66-3.66,7-7.25,7-10.75s0.33-6.91,1-10.25c3.66-13,6-26,7-39
        s4.33-25.5,10-37.5c4.33-4.33,8.83-6.5,13.5-6.5c4.66,0,8.75,1.92,12.25,5.75c3.5,3.84,5.25,8.59,5.25,14.25
        c-1.67,10-3.09,18.5-4.25,25.5c-1.17,7-2.25,13.5-3.25,19.5s-1.5,9.84-1.5,11.5c-0.34,3.34-0.25,6.67,0.25,10
        c0.5,3.34,0.91,6.84,1.25,10.5c0,3.34,1.91,5.25,5.75,5.75c3.83,0.5,6.91,0.92,9.25,1.25c5,0.34,10,0.42,15,0.25
        c5-0.16,9.83-0.25,14.5-0.25c10.33,0,20.83,0.09,31.5,0.25c10.66,0.17,19.58,1.42,26.75,3.75c7.16,2.34,10.41,7,9.75,14
        c0,6-2.5,9.5-7.5,10.5s-11.25,1-18.75,0s-15.25-1.5-23.25-1.5c-8.34,0-16.34,0.59-24,1.75c-7.67,1.17-19.17,3.25-34.5,6.25
        c-8,4.34-12.34,11.67-13,22c-1.34,10-1,21.84,1,35.5c2,13.67,5.16,27.75,9.5,42.25c4.33,14.5,9.5,28.17,15.5,41
        c6,12.84,12.5,23.42,19.5,31.75c13.33,10.34,23.66,17.5,31,21.5c7.33,4,15.33,6,24,6c7.66,0,14.33-0.83,20-2.5
        c5.66-1.66,10.91-2.75,15.75-3.25c4.83-0.5,9.41,1.09,13.75,4.75c4.66,4.67,5.25,9.25,1.75,13.75s-7.59,7.58-12.25,9.25
        C1864.03,678.01,1852.53,679.51,1841.53,679.51z"/>
</g>
<g id="Beetroot">
	<g id="shadow" fill="#ECABC6">
		<path d="M516.86,499.28
			c-0.92-0.11-1.16-3.92-1.19-4.4c-1.1-18.45-1.66-27.68,2.46-32.9c4.48-5.68,7.97-2.94,13.7-10.12c4.53-5.68,6.02-11.93,6.53-14.96
			c0.96-5.67-1.04-6.38,0-11.38c0.21-0.99,2.38-10.89,9.06-13.07c4.73-1.54,6.92,2.36,12.22,1.05c5.04-1.24,7.91-5.94,10.33-9.9
			c5.86-9.6,2.64-13.41,7.17-18.55c5.38-6.11,15.99-7.61,24.02-4.64c6.47,2.39,9.91,7.19,12.01,10.12
			c9.48,13.21,6.3,28.32,4.64,36.25c-1.64,7.79-3.93,10.36-6.11,11.59c-3.56,2.01-5.53-0.26-9.27,1.48
			c-5.68,2.63-3.76,9.08-10.96,16.02c-1.74,1.67-4.56,4.33-8.85,5.27c-4.41,0.97-5.94-0.84-10.75-0.63
			c-4.97,0.22-10.41,2.47-13.91,6.11c-5.71,5.94-2.43,11.61-7.38,14.96c-3.78,2.57-6.21-0.41-16.02,1.48
			c-4.85,0.93-8.38,1.61-11.38,4.43C518.2,492.14,518.13,499.43,516.86,499.28z"/>
        <path d="M507.19,495.04c3.42-0.84,2.16-16.79,0.28-26.98c-2.81-15.21-7.12-18.28-8.43-19.11
			c-4.43-2.8-7.1-0.62-10.96-3.65c-4.18-3.29-4.85-8.84-5.9-18.55c-1.4-12.94,0.53-16.61-2.53-20.23
			c-3.55-4.19-11.01-5.14-16.3-3.65c-5.03,1.41-6.09,4.52-8.99,3.93c-3.88-0.78-4.95-6.94-8.15-14.61
			c-4.27-10.25-6.53-15.32-10.96-18.55c-4.91-3.58-11.88-4.93-17.98-3.09c-6.44,1.94-9.84,6.82-13.21,11.8
			c-7.94,11.75-8.96,23.71-9.55,31.75c-0.91,12.37-1.73,23.62,5.06,29.22c4.9,4.04,8.61,0.9,15.74,5.62
			c8.45,5.6,6.36,12.11,13.21,15.17c6.98,3.12,10.69-2.96,21.92-0.28c2.25,0.54,7.08,1.97,11.8,5.62
			c7.18,5.55,5.55,9.63,10.68,12.64c7.72,4.53,14.19-3.08,23.04,1.12C503.74,486.94,504.65,495.66,507.19,495.04z"/>
        <path d="M489.02,500.35
			c6.22,2.7,15.38,5.51,25.89,4.05c7.28-1.01,10.95-3.48,18.91-6.53c3.98-1.53,19.56-7.51,33.99-7.43
			c24.35,0.13,41.96,17.47,45.24,20.71c12.32,12.13,16.82,25.34,19.81,34.44c2.91,8.87,10.86,37.27-1.35,68.21
			c-6.17,15.63-15.1,25.86-20.93,32.41c-10.39,11.68-17.78,20.26-30.61,24.99c-4.31,1.59-15.89,5.21-28.36,8.1
			c-4.23,0.98-9.87,2.18-15.08,6.75c-1.08,0.95-3.82,3.51-7.2,9.9c-3.82,7.21-3.51,9.96-6.98,20.48
			c-3.76,11.43-9.28,23.83-10.58,23.41c-0.41-0.13-0.65-1.18,2.03-27.01c0.78-7.57,0.11-11.28-0.9-14.63
			c-0.86-2.87-1.85-6.14-4.28-8.78c-5.54-6-13.87-3.57-27.24-5.63c-6.72-1.03-11.23-2.72-20.26-6.08
			c-21.37-7.96-35.9-22.38-40.29-27.01c-7.18-7.58-25.84-27.84-29.04-59.88c-0.76-7.59-3.25-36.9,15.76-62.35
			c3.67-4.92,14.16-18.6,32.64-25.66c8.71-3.32,16.49-4.15,20.03-4.5C472.36,497.11,482.43,498.75,489.02,500.35z"/>
	</g>
    <g id="outline" stroke="#fff" stroke-width="8" stroke-linecap="round" stroke-miterlimit="10" fill="none">
		<path class="st1" d="M503.86,479.28
			c-0.92-0.11-1.16-3.92-1.19-4.4c-1.1-18.45-1.66-27.68,2.46-32.9c4.48-5.68,7.97-2.94,13.7-10.12c4.53-5.68,6.02-11.93,6.53-14.96
			c0.96-5.67-1.04-6.38,0-11.38c0.21-0.99,2.38-10.89,9.06-13.07c4.73-1.54,6.92,2.36,12.22,1.05c5.04-1.24,7.91-5.94,10.33-9.9
			c5.86-9.6,2.64-13.41,7.17-18.55c5.38-6.11,15.99-7.61,24.02-4.64c6.47,2.39,9.91,7.19,12.01,10.12
			c9.48,13.21,6.3,28.32,4.64,36.25c-1.64,7.79-3.93,10.36-6.11,11.59c-3.56,2.01-5.53-0.26-9.27,1.48
			c-5.68,2.63-3.76,9.08-10.96,16.02c-1.74,1.67-4.56,4.33-8.85,5.27c-4.41,0.97-5.94-0.84-10.75-0.63
			c-4.97,0.22-10.41,2.47-13.91,6.11c-5.71,5.94-2.43,11.61-7.38,14.96c-3.78,2.57-6.21-0.41-16.02,1.48
			c-4.85,0.93-8.38,1.61-11.38,4.43C505.2,472.14,505.13,479.43,503.86,479.28z"/>
            <path class="st1" d="M465.67,512.33
			c6.7,2.25,22.07,6.37,40.74,2.03c13.89-3.23,23.71-9.78,29.04-13.96"/>
            <path class="st1" d="M419.17,524.89c-2.6,4-5.91,9.83-8.55,17.33c-2.15,6.1-6.71,19.55-4.05,36.24
			c3.16,19.84,14.69,32.71,19.58,37.59"/>
            <path class="st1" d="M494.19,475.04c3.42-0.84,2.16-16.79,0.28-26.98c-2.81-15.21-7.12-18.28-8.43-19.11
			c-4.43-2.8-7.1-0.62-10.96-3.65c-4.18-3.29-4.85-8.84-5.9-18.55c-1.4-12.94,0.53-16.61-2.53-20.23
			c-3.55-4.19-11.01-5.14-16.3-3.65c-5.03,1.41-6.09,4.52-8.99,3.93c-3.88-0.78-4.95-6.94-8.15-14.61
			c-4.27-10.25-6.53-15.32-10.96-18.55c-4.91-3.58-11.88-4.93-17.98-3.09c-6.44,1.94-9.84,6.82-13.21,11.8
			c-7.94,11.75-8.96,23.71-9.55,31.75c-0.91,12.37-1.73,23.62,5.06,29.22c4.9,4.04,8.61,0.9,15.74,5.62
			c8.45,5.6,6.36,12.11,13.21,15.17c6.98,3.12,10.69-2.96,21.92-0.28c2.25,0.54,7.08,1.97,11.8,5.62
			c7.18,5.55,5.55,9.63,10.68,12.64c7.72,4.53,14.19-3.08,23.04,1.12C490.74,466.94,491.65,475.66,494.19,475.04z"/>
            <path class="st2" d="M476.02,480.35
			c6.22,2.7,15.38,5.51,25.89,4.05c7.28-1.01,10.95-3.48,18.91-6.53c3.98-1.53,19.56-7.51,33.99-7.43
			c24.35,0.13,41.96,17.47,45.24,20.71c12.32,12.13,16.82,25.34,19.81,34.44c2.91,8.87,10.86,37.27-1.35,68.21
			c-6.17,15.63-15.1,25.86-20.93,32.41c-10.39,11.68-17.78,20.26-30.61,24.99c-4.31,1.59-15.89,5.21-28.36,8.1
			c-4.23,0.98-9.87,2.18-15.08,6.75c-1.08,0.95-3.82,3.51-7.2,9.9c-3.82,7.21-3.51,9.96-6.98,20.48
			c-3.76,11.43-9.28,23.83-10.58,23.41c-0.41-0.13-0.65-1.18,2.03-27.01c0.78-7.57,0.11-11.28-0.9-14.63
			c-0.86-2.87-1.85-6.14-4.28-8.78c-5.54-6-13.87-3.57-27.24-5.63c-6.72-1.03-11.23-2.72-20.26-6.08
			c-21.37-7.96-35.9-22.38-40.29-27.01c-7.18-7.58-25.84-27.84-29.04-59.88c-0.76-7.59-3.25-36.9,15.76-62.35
			c3.67-4.92,14.16-18.6,32.64-25.66c8.71-3.32,16.49-4.15,20.03-4.5C459.36,477.11,469.43,478.75,476.02,480.35z"/>
	</g>
</g>
</svg>
